HIERARCHY
ROOT root
{
	OFFSET 0.000000 0.000000 0.000000
	CHANNELS 6 Xposition Yposition Zposition Zrotation Yrotation Xrotation
	JOINT lhip
	{
		OFFSET 0.058581 -0.082280 -0.017664
		CHANNELS 3 Zrotation Yrotation Xrotation
		JOINT lknee
		{
			OFFSET 0.043451 -0.386469 0.008037
			CHANNELS 3 Zrotation Yrotation Xrotation
			JOINT lankle
			{
				OFFSET -0.014790 -0.426874 -0.037428
				CHANNELS 3 Zrotation Yrotation Xrotation
				JOINT ltoe
				{
					OFFSET 0.041054 -0.060286 0.122042
					CHANNELS 3 Zrotation Yrotation Xrotation
					End Site
					{
						OFFSET 0.000000 0.000000 0.000000
					}
				}
			}
		}
	}
	JOINT rhip
	{
		OFFSET -0.060310 -0.090513 -0.013543
		CHANNELS 3 Zrotation Yrotation Xrotation
		JOINT rknee
		{
			OFFSET -0.043257 -0.383688 -0.004843
			CHANNELS 3 Zrotation Yrotation Xrotation
			JOINT rankle
			{
				OFFSET 0.019056 -0.420046 -0.034562
				CHANNELS 3 Zrotation Yrotation Xrotation
				JOINT rtoe
				{
					OFFSET -0.034840 -0.062106 0.130323
					CHANNELS 3 Zrotation Yrotation Xrotation
					End Site
					{
						OFFSET 0.000000 0.000000 0.000000
					}
				}
			}
		}
	}
	JOINT lowerback
	{
		OFFSET 0.004439 0.124404 -0.038385
		CHANNELS 3 Zrotation Yrotation Xrotation
		JOINT upperback
		{
			OFFSET 0.004488 0.137956 0.026820
			CHANNELS 3 Zrotation Yrotation Xrotation
			JOINT chest
			{
				OFFSET -0.002265 0.056032 0.002855
				CHANNELS 3 Zrotation Yrotation Xrotation
				JOINT lowerneck
				{
					OFFSET -0.013390 0.211636 -0.033468
					CHANNELS 3 Zrotation Yrotation Xrotation
					JOINT upperneck
					{
						OFFSET 0.010113 0.088937 0.050410
						CHANNELS 3 Zrotation Yrotation Xrotation
						End Site
						{
							OFFSET 0.000000 0.000000 0.000000
						}
					}
				}
				JOINT lclavicle
				{
					OFFSET 0.071702 0.114000 -0.018898
					CHANNELS 3 Zrotation Yrotation Xrotation
					JOINT lshoulder
					{
						OFFSET 0.122921 0.045205 -0.019046
						CHANNELS 3 Zrotation Yrotation Xrotation
						JOINT lelbow
						{
							OFFSET 0.255332 -0.015649 -0.022946
							CHANNELS 3 Zrotation Yrotation Xrotation
							JOINT lwrist
							{
								OFFSET 0.265709 0.012698 -0.007375
								CHANNELS 3 Zrotation Yrotation Xrotation
								End Site
								{
									OFFSET 0.000000 0.000000 0.000000
								}
							}
						}
					}
				}
				JOINT rclavicle
				{
					OFFSET -0.082954 0.112472 -0.023707
					CHANNELS 3 Zrotation Yrotation Xrotation
					JOINT rshoulder
					{
						OFFSET -0.113228 0.046853 -0.008472
						CHANNELS 3 Zrotation Yrotation Xrotation
						JOINT relbow
						{
							OFFSET -0.260127 -0.014369 -0.031269
							CHANNELS 3 Zrotation Yrotation Xrotation
							JOINT rwrist
							{
								OFFSET -0.269108 0.006794 -0.006027
								CHANNELS 3 Zrotation Yrotation Xrotation
								End Site
								{
									OFFSET 0.000000 0.000000 0.000000
								}
							}
						}
					}
				}
			}
		}
	}
}
MOTION
Frames: 13
Frame Time: 0.033333
-0.095602 0.312275 1.074707 -119.888239 0.203768 94.464890 13.623820 0.716691 -27.738238 -1.845420 5.090234 1.167598 1.521423 16.336256 31.579117 0.000000 -0.000000 0.000000 -22.282438 -4.011965 10.635038 -3.017097 13.357495 60.534151 4.535160 -10.258885 23.436448 0.000000 -0.000000 0.000000 -6.897162 15.956918 -7.620889 2.745611 9.379087 11.577381 -1.549014 10.857790 -0.831168 -1.045600 -4.483947 24.037307 2.893880 -6.423175 16.433019 -2.305105 18.364236 11.120932 -33.091994 20.347430 11.371886 -103.008689 -59.613421 141.338406 22.828770 -14.228556 0.841940 10.942559 0.405964 4.043446 51.160980 3.975772 12.549625 59.649369 76.689656 86.219741 -14.486175 15.297973 -4.234811 
-0.181505 0.309157 1.041811 -119.569724 0.376446 93.715544 13.144136 0.205565 -27.148347 -4.106208 7.364220 8.082468 2.836496 16.829154 33.019388 0.000000 -0.000000 0.000000 -23.290261 -2.997923 10.115663 -2.957037 12.784882 68.645908 2.505704 -12.087840 19.565333 0.000000 -0.000000 0.000000 -6.816589 14.877461 -8.267799 3.878010 8.487606 10.693480 -1.840012 9.907837 -0.245713 0.042544 -4.125432 23.292070 1.212273 -5.957328 20.068391 -3.139811 19.979807 11.679804 -32.522511 20.370154 11.013918 -103.652516 -59.600660 142.130898 22.809793 -14.592576 0.761869 13.209998 -2.225819 3.585546 52.058580 2.549519 13.750148 48.958791 75.692637 75.887066 -14.274965 14.890163 -3.557593 
-0.266021 0.305249 1.000188 -117.941942 0.311497 91.896555 11.091021 -0.156106 -27.420367 -7.441661 4.869121 22.604453 6.332077 16.163874 17.884545 0.000000 -0.000000 0.000000 -23.162594 -2.309395 10.710926 -2.290691 12.688877 76.838902 1.832380 -14.355074 13.812528 0.000000 -0.000000 0.000000 -6.243569 14.027963 -6.283486 4.309976 6.911770 8.535346 -2.151798 8.627014 1.041447 0.759787 -4.287930 21.302645 0.000216 -5.555485 22.394753 -5.781285 19.810417 10.828982 -32.422255 19.911222 10.059389 -101.807257 -60.476585 140.209565 22.899394 -14.803493 2.361231 16.042772 -4.344184 2.309975 52.358662 -1.403712 13.744017 42.648124 76.042150 69.962708 -14.471497 14.347231 -1.959534 
-0.341853 0.301576 0.957153 -115.501167 -0.115546 89.208616 7.571774 0.455956 -27.904673 -9.177960 4.667687 38.476019 8.098133 17.030304 -2.107561 0.000000 -0.000000 0.000000 -20.998376 -1.379069 10.281819 -2.045690 12.266005 85.866129 2.412429 -15.882177 6.982896 0.000000 -0.000000 0.000000 -5.487359 12.785397 -1.172896 3.679568 5.409284 5.875519 -2.396937 7.138789 2.525873 1.216004 -4.864599 18.224992 -0.391339 -4.728228 21.196528 -12.077931 17.394762 8.140427 -32.358403 18.595301 9.114903 -96.082085 -64.398396 132.948512 21.940839 -14.244004 6.946755 20.294206 -5.079278 0.241283 51.563127 -6.174780 13.497238 31.472005 76.756188 58.060988 -16.780176 12.884141 0.706265 
-0.405170 0.299645 0.927256 -112.128635 -2.105981 87.187273 3.907891 -1.777075 -26.718690 -10.242910 5.773303 47.423495 8.814844 17.574341 -11.130219 0.000000 -0.000000 0.000000 -17.746655 -0.302535 5.514784 -2.104791 10.281383 95.184078 2.189263 -17.372179 0.658637 0.000000 -0.000000 0.000000 -6.684052 11.160758 4.769121 2.215194 3.674777 4.050807 -2.967828 5.102492 2.953743 2.793437 -4.589968 14.955450 -0.373190 -4.156334 20.693762 -19.665601 13.517802 5.558507 -33.023165 13.148920 8.513524 -77.255411 -70.866886 112.123391 20.041279 -12.691070 13.307316 24.786719 -5.485019 -0.901224 52.849037 -8.706734 14.274172 7.488840 72.979519 33.515526 -20.466790 9.888806 3.728389 
-0.462317 0.296884 0.913088 -110.050878 -2.944638 86.725637 1.222832 -3.210520 -23.946683 -11.119406 5.389357 51.093500 9.330654 18.229550 -17.682137 0.000000 -0.000000 0.000000 -12.323426 1.218463 -4.756478 -2.873277 8.150793 102.349273 1.433127 -18.598930 -4.027753 0.000000 -0.000000 0.000000 -6.430023 8.819253 8.630318 0.479811 3.132632 2.123619 -3.768357 3.306572 3.069878 2.714016 -4.571016 14.061817 1.080805 -2.714024 20.067716 -23.997392 8.788268 4.427118 -36.458038 6.388544 7.509441 -49.202273 -74.672464 84.362937 18.396158 -11.549859 20.431604 25.079552 -5.372905 -0.518985 57.240982 -12.435623 13.191739 -2.223750 66.293943 24.642164 -20.493232 7.054632 3.255309 
-0.515192 0.295778 0.908271 -107.038638 -2.627816 86.260832 -0.901201 -3.048997 -20.698192 -11.055445 4.414089 53.362216 9.693678 18.527481 -21.646888 0.000000 -0.000000 0.000000 -7.050421 3.102397 -15.902688 -4.513406 4.638457 104.157845 0.999370 -18.513393 -8.141161 0.000000 -0.000000 0.000000 -5.687843 5.147143 12.293807 -0.585364 2.467708 0.399097 -3.814631 1.595166 3.463645 1.357684 -4.335693 12.689628 2.412655 -1.014213 18.657471 -25.162163 5.115523 3.708003 -42.169878 -0.686205 7.174459 -31.390139 -78.167929 66.531272 18.079890 -11.449399 21.810574 23.185279 -5.755497 0.326685 59.645956 -16.207087 11.756704 -0.746509 63.335260 26.903279 -18.688746 7.634832 0.814330 
-0.568116 0.297128 0.911738 -101.882368 -1.779192 84.965760 -2.254316 -2.988641 -16.485376 -11.039428 1.708839 54.876101 7.951192 17.342731 -22.649939 0.000000 -0.000000 0.000000 -4.363783 3.771657 -24.533984 -5.686790 -0.103303 99.238134 2.196578 -15.546829 -10.972273 0.000000 -0.000000 0.000000 -5.120246 1.054614 16.189102 -0.359942 -0.025361 0.236490 -3.002682 -0.619004 3.396349 -0.326315 -2.673578 11.632908 2.481132 0.437636 16.024169 -24.908039 1.555982 3.209667 -47.107288 -7.114735 8.356354 -20.881003 -81.316245 55.320626 18.307055 -11.683905 21.070707 20.904505 -6.024034 0.860658 58.248038 -19.717692 11.927364 6.423047 63.171411 35.915163 -17.663131 8.975785 -0.056401 
-0.623216 0.299795 0.924650 -97.463602 -0.490516 84.645326 -2.401928 -2.185699 -11.007717 -11.902224 -3.139348 53.057845 5.541826 16.349570 -23.059094 0.000000 -0.000000 0.000000 -3.346702 3.580801 -31.575200 -5.813343 -4.135783 88.761163 4.008895 -12.961825 -11.706779 0.000000 -0.000000 0.000000 -4.130406 -2.343396 17.892349 0.432762 -2.344555 0.468535 -2.159587 -3.048421 3.026338 -2.061367 -0.550471 12.377939 1.992528 1.978997 13.801847 -23.932185 -1.737182 3.644806 -48.681705 -11.856011 10.126127 -22.459693 -83.448251 57.155397 19.032702 -12.968436 19.617129 19.221319 -6.966295 1.153037 55.318057 -22.708959 12.315271 14.454030 63.121843 45.252143 -18.213641 9.254903 -1.206141 
-0.681118 0.304231 0.944605 -95.297664 1.116075 85.581218 -1.214888 -0.097193 -5.240453 -11.644132 -7.194883 48.193075 3.465002 15.785798 -21.584304 0.000000 -0.000000 0.000000 -2.217159 3.809061 -36.568182 -4.712739 -6.707240 74.353954 4.763748 -12.416665 -10.624460 0.000000 -0.000000 0.000000 -2.895736 -5.323835 17.182803 1.190886 -3.518689 0.552749 -1.636549 -4.868019 3.136109 -3.321289 1.497819 13.171879 1.512910 3.725538 12.590550 -22.214642 -2.730770 3.784311 -48.404131 -14.696141 11.488383 -53.292721 -84.157485 89.146885 19.818414 -14.934427 18.227530 17.789275 -8.793442 1.123980 53.131365 -24.376377 12.484974 19.594567 63.212652 50.334216 -19.264874 9.673718 -2.677292 
-0.743613 0.309657 0.969634 -94.328622 2.539341 86.969725 0.152667 1.392860 1.163176 -9.949794 -9.881767 40.474330 1.384951 15.716173 -16.320036 0.000000 -0.000000 0.000000 -0.696320 4.167314 -38.003297 -3.093415 -7.546171 57.386440 5.296343 -11.772564 -7.090802 0.000000 -0.000000 0.000000 -1.768310 -7.809681 14.633101 1.843372 -4.550402 1.527525 -1.207527 -5.887984 3.237871 -4.452725 3.277817 14.030466 0.949047 5.504840 11.372046 -20.798684 -1.556153 3.689308 -48.139219 -15.429145 12.607623 -84.489535 -82.050429 121.601773 20.292852 -16.603530 16.722778 16.566829 -10.888040 1.332214 51.881900 -24.998918 12.396624 22.359101 64.700421 53.405141 -19.962612 9.895433 -3.446652 
-0.811150 0.314502 0.995999 -93.635381 3.669226 88.468885 1.031154 1.845599 6.862543 -7.235841 -11.285109 32.576299 -0.495567 15.920757 -7.039568 0.000000 -0.000000 0.000000 0.623477 4.250327 -36.211466 -1.682814 -8.550684 39.853013 5.671144 -11.098845 -0.259639 0.000000 -0.000000 0.000000 -0.163234 -9.878078 10.820874 2.109730 -5.555407 2.778264 -1.052707 -6.470875 3.252942 -6.024652 4.154697 15.682323 0.284619 7.810084 9.897955 -19.875875 0.969968 3.987682 -48.919574 -14.285343 13.845158 -96.974916 -78.688556 134.753923 20.092174 -17.351074 15.072785 14.892816 -13.250418 2.126533 51.642619 -25.031771 11.857925 25.790370 67.093461 56.380385 -20.242838 10.168249 -4.767551 
-0.881867 0.319070 1.017189 -93.085308 4.152193 90.400833 1.588498 2.173833 10.104130 -5.010933 -10.889308 27.277156 -1.989422 15.600703 5.048487 0.000000 -0.000000 0.000000 1.205348 3.992466 -33.415602 0.545345 -9.703605 24.648141 5.587272 -10.852889 7.244808 0.000000 -0.000000 0.000000 1.491213 -11.073085 5.918219 2.110544 -6.240387 3.783741 -1.132602 -6.934642 3.049922 -7.771183 4.155126 18.297603 -0.180531 10.260036 8.270816 -18.693784 3.786108 5.056039 -50.536440 -12.159319 15.145134 -99.700126 -75.081991 137.929786 19.303799 -16.907454 13.063416 12.619393 -15.850987 3.735893 51.878069 -24.593226 11.118678 32.269844 69.519656 62.323514 -19.965896 10.554476 -6.541814 
